<svg width="30" height="32" viewBox="0 0 30 32" fill="none" xmlns="http://www.w3.org/2000/svg">
<g filter="url(#filter0_d_888_167)">
<path d="M14 2.57735C14.6188 2.22008 15.3812 2.22008 16 2.57735L26.1244 8.42265C26.7432 8.77992 27.1244 9.44017 27.1244 10.1547V21.8453C27.1244 22.5598 26.7432 23.2201 26.1244 23.5774L16 29.4226C15.3812 29.7799 14.6188 29.7799 14 29.4226L3.87564 23.5774C3.25684 23.2201 2.87564 22.5598 2.87564 21.8453V10.1547C2.87564 9.44017 3.25684 8.77992 3.87564 8.42265L14 2.57735Z" fill="#E8E8E8"/>
</g>
<path d="M15.25 4.5L16.4434 2H13.5566L14.75 4.5H15.25ZM14.75 27.5L13.5566 30H16.4434L15.25 27.5H14.75ZM14.75 4.25V27.75H15.25V4.25H14.75Z" fill="#6A6A6A" fill-opacity="0.22"/>
<path d="M27.0868 10.2237C27.7626 9.93128 28.0735 9.14637 27.7811 8.47053C27.4887 7.79468 26.7038 7.48383 26.0279 7.77622C25.3521 8.06861 25.0412 8.85352 25.3336 9.52936C25.626 10.2052 26.4109 10.5161 27.0868 10.2237ZM15.0993 14.2294L26.6566 9.22939L26.4581 8.7705L14.9007 13.7706L15.0993 14.2294Z" fill="#6A6A6A" fill-opacity="0.22"/>
<path d="M2.16667 9C2.16667 9.73638 2.76362 10.3333 3.5 10.3333C4.23638 10.3333 4.83333 9.73638 4.83333 9C4.83333 8.26362 4.23638 7.66667 3.5 7.66667C2.76362 7.66667 2.16667 8.26362 2.16667 9ZM15.0997 13.7707L3.59968 8.77073L3.40032 9.22927L14.9003 14.2293L15.0997 13.7707Z" fill="#6A6A6A" fill-opacity="0.22"/>
<path d="M9.51284 24.76C9.54484 24.248 9.56884 23.664 9.58484 23.008C9.63284 22.288 9.65684 21.592 9.65684 20.92V10.816C9.44884 10.816 9.10484 10.864 8.62484 10.96C8.14484 11.056 7.72084 11.152 7.35284 11.248L7.25684 11.104L7.80884 8.2H13.3768V8.44C13.3448 9.304 13.3208 10.016 13.3048 10.576C13.2728 11.184 13.2568 11.752 13.2568 12.28V15.088H15.7528L17.3608 12.976C17.6488 12.592 17.9208 12.224 18.1768 11.872C18.4328 11.52 18.6808 11.16 18.9208 10.792C18.7608 10.792 18.5368 10.816 18.2488 10.864C17.9608 10.896 17.6808 10.936 17.4088 10.984L16.5448 11.08L16.4488 10.936L18.2488 7.20056H25.3048L24.3208 8.416C24.0328 8.784 23.7448 9.152 23.4568 9.52C23.1848 9.872 22.9128 10.224 22.6408 10.576C22.3688 10.944 22.0888 11.312 21.8008 11.68C21.5128 12.032 21.2248 12.4 20.9368 12.784L18.4888 15.976L22.1608 21.112C23.0408 22.28 24.0168 23.472 25.0888 24.688V25H17.3368L16.6888 22.408L16.7848 22.264C16.9288 22.28 17.0808 22.304 17.2408 22.336C17.4008 22.368 17.5608 22.408 17.7208 22.456C17.9768 22.536 18.2408 22.608 18.5128 22.672C18.7848 22.736 19.0168 22.776 19.2088 22.792L15.8008 18.112H13.2568V20.92C13.2568 21.448 13.2728 22.016 13.3048 22.624C13.3208 23.184 13.3448 23.896 13.3768 24.76V25H9.51284V24.76Z" fill="#0E1D34"/>
<defs>
<filter id="filter0_d_888_167" x="0.875732" y="0.309448" width="28.2485" height="31.3811" filterUnits="userSpaceOnUse" color-interpolation-filters="sRGB">
<feFlood flood-opacity="0" result="BackgroundImageFix"/>
<feColorMatrix in="SourceAlpha" type="matrix" values="0 0 0 0 0 0 0 0 0 0 0 0 0 0 0 0 0 0 127 0" result="hardAlpha"/>
<feOffset/>
<feGaussianBlur stdDeviation="1"/>
<feComposite in2="hardAlpha" operator="out"/>
<feColorMatrix type="matrix" values="0 0 0 0 0.172179 0 0 0 0 0.172179 0 0 0 0 0.172179 0 0 0 0.3 0"/>
<feBlend mode="normal" in2="BackgroundImageFix" result="effect1_dropShadow_888_167"/>
<feBlend mode="normal" in="SourceGraphic" in2="effect1_dropShadow_888_167" result="shape"/>
</filter>
</defs>
</svg>
