<svg width="65" height="13" viewBox="0 0 65 13" fill="none" xmlns="http://www.w3.org/2000/svg">
<path d="M2.29238 11.84C2.31371 11.4987 2.32971 11.1093 2.34038 10.672C2.37238 10.192 2.38838 9.728 2.38838 9.28V2.544C2.24971 2.544 2.02038 2.576 1.70038 2.64C1.38038 2.704 1.09771 2.768 0.852375 2.832L0.788375 2.736L1.15638 0.799999H4.86838V0.959999C4.84704 1.536 4.83104 2.01067 4.82038 2.384C4.79904 2.78933 4.78838 3.168 4.78838 3.52V5.392H6.45238L7.52438 3.984C7.71638 3.728 7.89771 3.48267 8.06838 3.248C8.23904 3.01333 8.40438 2.77333 8.56437 2.528C8.45771 2.528 8.30838 2.544 8.11638 2.576C7.92438 2.59733 7.73771 2.624 7.55638 2.656L6.98038 2.72L6.91638 2.624L7.46038 0.799999H12.1644V0.943999C11.9724 1.18933 11.7804 1.43467 11.5884 1.68C11.407 1.91467 11.2257 2.14933 11.0444 2.384C10.863 2.62933 10.6764 2.87467 10.4844 3.12C10.2924 3.35467 10.1004 3.6 9.90838 3.856L8.27638 5.984L10.7244 9.408C11.311 10.1867 11.9617 10.9813 12.6764 11.792V12H7.50838L7.07638 10.272L7.14038 10.176C7.23638 10.1867 7.33771 10.2027 7.44438 10.224C7.55104 10.2453 7.65771 10.272 7.76438 10.304C7.93504 10.3573 8.11104 10.4053 8.29238 10.448C8.47371 10.4907 8.62838 10.5173 8.75638 10.528L6.48438 7.408H4.78838V9.28C4.78838 9.632 4.79904 10.0107 4.82038 10.416C4.83104 10.7893 4.84704 11.264 4.86838 11.84V12H2.29238V11.84ZM25.566 10.064L25.198 12H21.438V11.84C21.4913 11.1253 21.518 10.272 21.518 9.28V7.456H17.102V9.28C17.102 10.1653 17.1287 11.0187 17.182 11.84V12H14.558V11.84C14.622 11.1253 14.654 10.272 14.654 9.28V2.544C14.5153 2.544 14.286 2.576 13.966 2.64C13.646 2.704 13.3633 2.768 13.118 2.832L13.054 2.736L13.422 0.799999H17.182V0.959999C17.1287 1.78133 17.102 2.63467 17.102 3.52V5.344H21.518V3.52C21.518 2.528 21.4913 1.67467 21.438 0.959999V0.799999H24.062V0.959999C23.998 1.78133 23.966 2.63467 23.966 3.52V10.256C24.1047 10.256 24.334 10.224 24.654 10.16C24.974 10.0853 25.2567 10.0213 25.502 9.968L25.566 10.064ZM26.051 11.824C26.179 11.5467 26.2963 11.2853 26.403 11.04C26.5203 10.784 26.6323 10.5387 26.739 10.304C26.9523 9.84533 27.1657 9.37067 27.379 8.88C27.5923 8.37867 27.8163 7.824 28.051 7.216L29.923 2.592C29.7097 2.58133 29.4803 2.576 29.235 2.576C29.0003 2.56533 28.755 2.56 28.499 2.56C28.4563 2.56 28.4083 2.56 28.355 2.56C28.3017 2.56 28.243 2.56 28.179 2.56L28.787 0.704C29.3843 0.746666 30.0563 0.773333 30.803 0.783999C31.5497 0.794666 32.179 0.799999 32.691 0.799999H33.475C33.8483 1.94133 34.2217 2.98667 34.595 3.936L36.291 8.128C36.4617 8.58667 36.659 9.104 36.883 9.68C37.0323 10.032 37.1817 10.3893 37.331 10.752C37.491 11.104 37.6563 11.4667 37.827 11.84V12H33.315L32.947 10.192L32.995 10.096L33.251 10.128C33.4537 10.16 33.667 10.192 33.891 10.224C34.115 10.2453 34.3177 10.256 34.499 10.256L33.875 8.592H29.683C29.6617 8.64533 29.635 8.704 29.603 8.768C29.5817 8.832 29.5603 8.896 29.539 8.96C29.347 9.45067 29.187 9.88267 29.059 10.256C29.2297 10.256 29.4217 10.2453 29.635 10.224C29.859 10.192 30.0777 10.16 30.291 10.128C30.3337 10.1173 30.3763 10.112 30.419 10.112C30.4723 10.1013 30.5203 10.096 30.563 10.096L30.627 10.192L30.275 12H26.051V11.824ZM33.315 6.864L32.643 5.152C32.6323 5.12 32.6217 5.09333 32.611 5.072C32.6003 5.04 32.5897 5.01333 32.579 4.992C32.387 4.45867 32.2163 4.02667 32.067 3.696C31.9283 3.36533 31.7843 3.09867 31.635 2.896L30.275 6.864H33.315ZM44.1274 12.88L44.6554 12H39.1674V11.84C39.2314 11.072 39.2634 10.2187 39.2634 9.28V2.544C39.146 2.544 38.938 2.576 38.6394 2.64C38.3407 2.69333 38.0367 2.75733 37.7274 2.832L37.6634 2.736L38.0314 0.799999H41.7914V0.959999C41.738 1.856 41.7114 2.70933 41.7114 3.52V10.08H42.4474C43.1834 10.08 43.7807 10.016 44.2394 9.888C44.698 9.76 45.0554 9.57333 45.3114 9.328C45.578 9.072 45.7967 8.74667 45.9674 8.352L46.1114 8.048L47.4874 8.528L46.2394 12.96H44.1914L44.1274 12.88ZM49.0424 11.84C49.1064 11.072 49.1384 10.2187 49.1384 9.28V2.544C48.9997 2.544 48.7704 2.576 48.4504 2.64C48.1304 2.704 47.8477 2.768 47.6024 2.832L47.5384 2.736L47.9064 0.799999H51.6664V0.959999C51.613 1.856 51.5864 2.70933 51.5864 3.52V10.256C51.725 10.256 51.9544 10.224 52.2744 10.16C52.5944 10.0853 52.877 10.0213 53.1224 9.968L53.1864 10.064L52.8184 12H49.0424V11.84ZM55.2924 11.84C55.3564 11.1253 55.3884 10.272 55.3884 9.28V2.544C55.2497 2.544 55.0204 2.576 54.7004 2.64C54.3804 2.704 54.0977 2.768 53.8524 2.832L53.7884 2.736L54.1564 0.799999H58.4764C59.7457 0.799999 60.8604 1.03467 61.8204 1.504C62.7804 1.96267 63.5217 2.61867 64.0444 3.472C64.5777 4.31467 64.8444 5.29067 64.8444 6.4C64.8444 7.50933 64.5777 8.49067 64.0444 9.344C63.5217 10.1867 62.7804 10.8427 61.8204 11.312C60.8604 11.7707 59.7457 12 58.4764 12H55.2924V11.84ZM58.7644 10.128C59.4897 10.128 60.1137 9.97867 60.6364 9.68C61.1697 9.38133 61.5804 8.95467 61.8684 8.4C62.1564 7.83467 62.3004 7.168 62.3004 6.4C62.3004 5.632 62.1564 4.97067 61.8684 4.416C61.5804 3.85067 61.1697 3.41867 60.6364 3.12C60.1137 2.82133 59.4897 2.672 58.7644 2.672H57.8044V10.128H58.7644Z" fill="white"/>
</svg>
